# xmcd
#
# Track frame offsets:
#	150
#	15902
#	30992
#	46095
#	52801
#	72409
#	87145
#	96746
#	111686
#	124679
#	140009
#	153717
#	164116
#	179771
#
# Disc length: 2608 seconds
#
# Revision: 3
# Processed by: cddbd v1.5.2PL0 Copyright (c) Steve Scherf et al.
# Submitted via: audiograbber 1.83.01
#
DISCID=c60a2e0e
DTITLE=Texas Lightning - Western bound
DYEAR=2009
DGENRE=Country
TTITLE0=Seven ways to heaven
TTITLE1=Gentle on my mind (live)
TTITLE2=Summer kiss
TTITLE3=Arizona main theme
TTITLE4=On the old Kentucky shore (live)
TTITLE5=I wish you were here (Winnetou Melodie)
TTITLE6=Dad's theme
TTITLE7=Hurricane of love
TTITLE8=The godfather (live)
TTITLE9=Out there somewhere
TTITLE10=Nscho-Tschi's theme
TTITLE11=The unknown stuntman (live)
TTITLE12=Buffalo chase in Arizona
TTITLE13=Bobby's theme
EXTD=
EXTT0=
EXTT1=
EXTT2=
EXTT3=
EXTT4=
EXTT5=
EXTT6=
EXTT7=
EXTT8=
EXTT9=
EXTT10=
EXTT11=
EXTT12=
EXTT13=
PLAYORDER=
